<svg id="圖層_1" data-name="圖層 1" xmlns="http://www.w3.org/2000/svg" viewBox="0 0 240 50"><defs><style>.cls-1{fill:#222;}</style></defs><path class="cls-1" d="M7.68,37.89a12.52,12.52,0,0,1-4.34-.8A5.16,5.16,0,0,0,2,36.75c-.53,0-.8.27-1,1.14H0V29.64H1a10.84,10.84,0,0,0,2,4.74,5.87,5.87,0,0,0,4.81,2.41c2.57,0,4.2-1.47,4.2-3.78,0-1.76-.8-2.63-3.74-4L6,27.91C3.17,26.54,1.37,25,.67,23.2A6.34,6.34,0,0,1,.3,21c0-4.24,2.77-6.81,7.31-6.81a10.37,10.37,0,0,1,3.91.77,5,5,0,0,0,1.4.33c.6,0,.83-.23,1.07-1.14h1V21.4h-.94a9.08,9.08,0,0,0-2.33-4.31,5.71,5.71,0,0,0-4.11-1.87c-2.27,0-3.67,1.27-3.67,3.34,0,1.64.73,2.44,3.44,3.77l4.9,2.44A7,7,0,0,1,16,30.84C16,35.05,12.62,37.89,7.68,37.89Z"/><path class="cls-1" d="M31.21,37.89A11.36,11.36,0,0,1,19.39,26.07c0-6.94,5-11.88,12-11.88A11.45,11.45,0,0,1,43,26,11.39,11.39,0,0,1,31.21,37.89Zm.1-22.6c-3.91,0-6,3.87-6,11.08,0,6.74,2.07,10.42,5.91,10.42s5.91-3.68,5.91-10.52S35,15.29,31.31,15.29Z"/><path class="cls-1" d="M58,37.89A11.36,11.36,0,0,1,46.2,26.07c0-6.94,5-11.88,11.95-11.88A11.45,11.45,0,0,1,69.83,26,11.39,11.39,0,0,1,58,37.89Zm.1-22.6c-3.9,0-6,3.87-6,11.08,0,6.74,2.07,10.42,5.9,10.42s5.91-3.68,5.91-10.52S61.79,15.29,58.11,15.29Z"/><path class="cls-1" d="M92.63,18.19V37.85h-.94L76.77,19.7V33.11c0,2.37.6,3,3.18,3.31v.83H72.37v-.83c2.43-.3,2.94-.77,2.94-2.67V17.93c-1.61-1.91-2.17-2.41-2.84-2.41v-.83h7L91.16,29V18.83c0-2.37-.63-3.07-3.1-3.31v-.83h7.17v.83C93.06,15.86,92.63,16.29,92.63,18.19Z"/><path class="cls-1" d="M117.83,16.83l-6.37,10.38v6.14c0,2.47.33,2.8,3.07,3.07v.83H102.94v-.83c2.74-.27,3.11-.64,3.11-3.07V28.44L99.94,17.36a3.28,3.28,0,0,0-2.67-1.84v-.83h11.18v.83l-.83,0c-1.37,0-1.87.26-1.87,1a3.28,3.28,0,0,0,.6,1.57,3.62,3.62,0,0,1,.2.4l4,7.74,3.71-6.17a7.75,7.75,0,0,0,1.3-3.17c0-1-.57-1.24-2.8-1.41v-.83h7.34v.83A2.89,2.89,0,0,0,117.83,16.83Z"/><path class="cls-1" d="M122.37,37.25v-.83c2.5-.23,3.1-.7,3.1-2.37V17.89c0-1.7-.7-2.2-3.1-2.37v-.83h11.68v.83c-2.47.1-3.17.64-3.17,2.37V34.05c0,1.73.64,2.2,3.17,2.37v.83Z"/><path class="cls-1" d="M165,21.4c-.56-4-2.3-5.51-6.41-5.64V33.35c0,2.53.37,2.87,3.27,3.07v.83H149.91v-.83c2.87-.23,3.24-.6,3.24-3.07V15.76c-4.14.13-5.88,1.67-6.45,5.64h-1l.1-6.71h20l.07,6.71Z"/><path class="cls-1" d="M188.6,18.36V29c0,3.2-.91,5.74-2.54,7A9.9,9.9,0,0,1,180,37.89a10.59,10.59,0,0,1-6.24-1.8c-2-1.47-2.67-3.11-2.67-6.35V18.59c0-2.4-.4-2.83-2.74-3.07v-.83h11.29v.83c-2.77.14-3.24.57-3.24,3.07V29.74c0,4.54,1.47,6.51,4.87,6.51,4,0,5.88-2.3,5.88-7.24V18.83c0-2.44-.67-3.11-3.27-3.31v-.83h7.34v.83C189.06,15.86,188.6,16.39,188.6,18.36Z"/><path class="cls-1" d="M213.53,18.19V37.85h-.93L197.67,19.7V33.11c0,2.37.61,3,3.18,3.31v.83h-7.58v-.83c2.43-.3,2.94-.77,2.94-2.67V17.93c-1.61-1.91-2.17-2.41-2.84-2.41v-.83h7L212.06,29V18.83c0-2.37-.63-3.07-3.1-3.31v-.83h7.17v.83C214,15.86,213.53,16.29,213.53,18.19Z"/><path class="cls-1" d="M229.18,37.25v-.83l1.07-.1c1.17-.07,1.61-.37,1.61-1.1s-.41-1.91-1.54-4.54h-7.51l-.5,1.33a10.68,10.68,0,0,0-1,3c0,.87.77,1.24,2.74,1.37v.83H217.3v-.83c1.6-.3,2-.77,3.27-3.91L228,14.22h.94l7.44,17.56c1.8,4.17,2.17,4.64,3.64,4.64v.83Zm-2.73-16-3.14,8.12h6.51Z"/><path class="cls-1" d="M99.74,48.92h-.47a3.57,3.57,0,0,1-.07-.87,1.92,1.92,0,0,1-1.85.94c-1.67,0-2.55-1.28-2.55-2.93S95.74,43,97.47,43a2.14,2.14,0,0,1,2.32,1.76h-.6a1.64,1.64,0,0,0-1.74-1.24c-1.41,0-2,1.11-2,2.51s.6,2.44,2,2.44,1.76-.92,1.76-2.07v-.06H97.39v-.53h2.35Z"/><path class="cls-1" d="M104.55,43.09h.59v5.3h3.09l-.09.53h-3.59Z"/><path class="cls-1" d="M117.26,46c0,1.6-.87,3-2.68,3s-2.64-1.32-2.64-3a2.71,2.71,0,0,1,2.7-3A2.66,2.66,0,0,1,117.26,46Zm-4.69,0c0,1.3.7,2.49,2,2.49s2-1.17,2-2.5-.67-2.44-2-2.44S112.57,44.69,112.57,46Z"/><path class="cls-1" d="M121.85,43.09H124c1.17,0,1.76.62,1.76,1.44a1.26,1.26,0,0,1-.88,1.27,1.46,1.46,0,0,1,1.08,1.42,1.7,1.7,0,0,1-1.92,1.7h-2.16Zm2,2.47c.93,0,1.29-.36,1.29-1s-.38-1-1.14-1h-1.54v2Zm-1.39,2.84H124c.75,0,1.33-.37,1.33-1.16s-.44-1.17-1.53-1.17h-1.35Z"/><path class="cls-1" d="M131.21,47l-.69,1.9h-.6L132,43.09h.72l2.2,5.83h-.64l-.71-1.9Zm2.23-.53c-.61-1.64-.93-2.46-1.05-2.88h0c-.14.47-.5,1.48-1,2.88Z"/><path class="cls-1" d="M139.27,43.09h.6v5.3H143l-.09.53h-3.59Z"/></svg>